<svg xmlns="http://www.w3.org/2000/svg" version="1.1" height="60" viewBox="-5.0 -10.0 110.0 135.0">
    <path fill="#fff0f0" d="m91.668 32.375v49.332c0 2.6406-1.0508 5.1758-2.918 7.043s-4.4023 2.918-7.043 2.918h-49.332c-2.8477-0.050781-5.5352-1.3242-7.375-3.5-0.77734-0.48438-1.2812-1.3086-1.3633-2.2227-0.078125-0.91016 0.27344-1.8086 0.95703-2.4219 0.67969-0.61328 1.6094-0.87109 2.5078-0.69531 0.89844 0.17578 1.6641 0.76562 2.0664 1.5898 0.77734 0.88672 1.8984 1.4023 3.082 1.4141h49.457c1.1055 0 2.168-0.4375 2.9492-1.2188s1.2188-1.8398 1.2188-2.9453v-49.293c0.011719-1.2344-0.52344-2.4062-1.457-3.207-0.82422-0.40234-1.4141-1.168-1.5898-2.0664-0.17578-0.89844 0.082031-1.8281 0.69531-2.5078 0.61328-0.68359 1.5117-1.0352 2.4219-0.95703 0.91406 0.082031 1.7383 0.58594 2.2227 1.3633 2.1758 1.8398 3.4492 4.5273 3.5 7.375zm-24.043 45.207h-49.332c-5.5 0-9.9609-4.457-9.9609-9.957v-49.332c0-5.5 4.4609-9.9609 9.9609-9.9609h49.332c5.5 0 9.957 4.4609 9.957 9.9609v49.332c0 2.6406-1.0469 5.1758-2.9141 7.043-1.8672 1.8672-4.4023 2.9141-7.043 2.9141zm-53.457-59.289v35.875h15c3.7969-0.10938 7.3359 1.918 9.1641 5.25 0.875 1.6523 2.5898 2.6875 4.4609 2.6875 1.8672 0 3.5859-1.0352 4.457-2.6875 1.8477-3.3945 5.4727-5.4336 9.332-5.25h15.168v-35.875c0-1.1055-0.4375-2.168-1.2188-2.9492s-1.8438-1.2188-2.9492-1.2188h-49.289c-2.2852 0.023438-4.125 1.8828-4.125 4.168zm4.168 53.457h49.289c1.1055 0 2.1641-0.4375 2.9453-1.2188s1.2227-1.8438 1.2227-2.9492v-7.625h-15.211c-1.6641-0.125-3.2656 0.67578-4.1641 2.0859-1.8672 3.5781-5.5703 5.8203-9.6055 5.8203s-7.7383-2.2422-9.6055-5.8203c-0.88672-1.4258-2.4961-2.2305-4.1641-2.0859h-14.875v7.668c0.019531 2.2695 1.8555 4.1016 4.125 4.125z"/>
    <text x="0.0" y="117.5" font-size="5.0" font-weight="bold" font-family="Arbeit Regular, Helvetica, Arial-Unicode, Arial, Sans-serif" fill="#ffffff">Created by Iconic Creations</text><text x="0.0" y="122.5" font-size="5.0" font-weight="bold" font-family="Arbeit Regular, Helvetica, Arial-Unicode, Arial, Sans-serif" fill="#ffffff">from Noun Project</text></svg>