<?xml version="1.0" standalone="no"?>
<!DOCTYPE svg PUBLIC "-//W3C//DTD SVG 20010904//EN"
 "http://www.w3.org/TR/2001/REC-SVG-20010904/DTD/svg10.dtd">
<svg version="1.0" xmlns="http://www.w3.org/2000/svg"
 width="90.000000pt" height="50.000000pt" viewBox="0 0 90.000000 90.000000"
 preserveAspectRatio="xMidYMid meet">

<g transform="translate(0.000000,90.000000) scale(0.100000,-0.100000)"
fill="#A020F0" stroke="none">
<path d="M191 826 c-21 -25 3 -44 57 -48 43 -3 47 -5 47 -28 0 -24 -2 -25 -77
-28 -99 -4 -131 -36 -61 -63 18 -6 24 -15 21 -32 -3 -20 -9 -22 -65 -25 -111
-5 -111 -59 0 -64 59 -3 62 -4 62 -28 0 -21 -5 -26 -32 -28 -75 -7 -63 -59 15
-64 43 -3 47 -5 47 -28 0 -23 -4 -25 -47 -28 -53 -3 -78 -23 -58 -47 8 -10 38
-15 103 -17 91 -3 92 -3 92 -28 0 -21 -5 -26 -32 -28 -40 -4 -61 -26 -43 -47
8 -10 31 -15 69 -15 67 0 85 -14 123 -95 13 -27 30 -50 37 -50 8 0 28 27 45
60 25 48 46 71 107 117 165 123 216 276 145 433 -33 74 -79 120 -154 157 -65
32 -69 33 -227 36 -138 3 -163 2 -174 -12z m320 -255 c20 -20 29 -39 29 -61 0
-43 -47 -90 -90 -90 -43 0 -90 47 -90 90 0 22 9 41 29 61 20 20 39 29 61 29
22 0 41 -9 61 -29z"/>
</g>
</svg>
