<?xml version="1.0" standalone="no"?>
<!DOCTYPE svg PUBLIC "-//W3C//DTD SVG 20010904//EN"
 "http://www.w3.org/TR/2001/REC-SVG-20010904/DTD/svg10.dtd">
<svg version="1.0" xmlns="http://www.w3.org/2000/svg"
 width="60.000000pt" height="30.000000pt" viewBox="0 0 60.000000 60.000000"
 preserveAspectRatio="xMidYMid meet">

<g transform="translate(0.000000,60.000000) scale(0.100000,-0.100000)"
fill="#A020F0" stroke="none">
<path d="M124 549 c-9 -15 6 -27 41 -31 19 -2 30 -9 30 -18 0 -11 -14 -16 -50
-18 -64 -4 -78 -17 -45 -42 31 -24 20 -38 -35 -42 -58 -4 -55 -31 5 -38 50 -6
62 -30 20 -40 -38 -9 -31 -34 10 -40 22 -3 35 -10 35 -20 0 -10 -13 -17 -35
-20 -22 -3 -35 -10 -35 -20 0 -11 16 -16 65 -20 48 -4 65 -9 65 -20 0 -8 -11
-17 -25 -20 -45 -11 -30 -35 25 -40 48 -5 51 -7 73 -50 12 -25 27 -46 32 -48
5 -2 17 15 26 38 11 27 31 51 59 70 144 99 174 247 72 357 -28 30 -54 47 -90
58 -59 18 -232 21 -243 4z m218 -166 c22 -20 23 -61 1 -85 -34 -38 -103 -11
-103 40 0 54 62 81 102 45z"/>
</g>
</svg>
